<?xml version="1.0" encoding="UTF-8"?>
<!DOCTYPE svg PUBLIC "-//W3C//DTD SVG 1.1//EN" "http://www.w3.org/Graphics/SVG/1.1/DTD/svg11.dtd">
<!-- Creator: CorelDRAW 2021 (64-Bit) -->
<svg xmlns="http://www.w3.org/2000/svg" xml:space="preserve" width="2480px" height="3508px" version="1.1" shape-rendering="geometricPrecision" text-rendering="geometricPrecision" image-rendering="optimizeQuality" fill-rule="evenodd" clip-rule="evenodd"
viewBox="0 0 2480 3507"
 xmlns:xlink="http://www.w3.org/1999/xlink"
 xmlns:xodm="http://www.corel.com/coreldraw/odm/2003">
 <g id="Capa_x0020_1">
  <metadata id="CorelCorpID_0Corel-Layer"/>
  <path fill="#888888" d="M1640 2127l0 -25 -67 0 0 295 67 0 0 -182c0,-36 11,-64 47,-64 23,0 36,14 41,32 5,18 3,50 3,70 0,44 1,93 0,137 0,4 -1,7 2,7l63 0 0 -187c0,-34 13,-58 47,-58 45,0 45,48 45,82l0 164 65 0c2,0 2,-1 2,-2l0 -187c0,-29 -4,-59 -19,-83 -31,-47 -100,-44 -137,-9l-2 2c-7,7 -16,21 -17,21 -2,-11 -16,-27 -25,-34 -28,-23 -66,-19 -94,1 -11,8 -19,19 -21,20zm-1136 80c-8,12 -19,24 -29,35l-44 53c-2,2 -3,4 -5,6 -6,8 -13,15 -19,23 -3,4 -6,7 -10,12 -5,7 -47,56 -49,60l89 0c2,-3 4,-6 6,-9l34 -43c1,-2 68,-82 69,-86 2,1 1,0 3,2 1,1 2,2 2,3l98 122c2,2 3,4 5,6 2,3 2,4 7,4 19,1 63,0 85,0 0,-4 -6,-9 -9,-12 -3,-4 -6,-7 -10,-12 -2,-2 -3,-3 -5,-6l-29 -36c-2,-2 -3,-4 -5,-6 -2,-2 -3,-4 -5,-6l-25 -30c-2,-2 -3,-3 -5,-6l-15 -18c-2,-2 -3,-4 -5,-6l-34 -42c-2,-2 -3,-4 -5,-6 -2,-2 -3,-4 -5,-6 5,-8 12,-15 18,-22l46 -57c13,-16 76,-93 82,-103l-84 0c-2,3 -4,5 -6,8l-20 24c-5,5 -8,11 -13,16 -14,16 -26,32 -40,49l-23 28c-2,2 -1,3 -4,4 -1,-4 -15,-18 -17,-22 -6,-7 -12,-14 -18,-22l-40 -49c-2,-2 -3,-4 -5,-6 -2,-2 -3,-3 -4,-5l-18 -22c-2,-3 -2,-4 -6,-4 -18,-1 -59,0 -80,0 1,4 6,8 8,11 3,4 6,7 9,11l101 125c3,4 6,8 9,11 4,5 15,17 18,23zm528 140c-28,0 -56,-14 -56,-43 0,-10 5,-20 12,-27 26,-26 80,-24 117,-24 0,26 2,41 -14,63 -7,10 -19,19 -30,24 -8,3 -18,6 -29,6zm-112 -224c0,4 13,25 16,30 2,4 9,15 10,19 4,0 3,-2 9,-6 3,-2 6,-4 9,-6l21 -11c8,-3 16,-6 24,-7 6,-1 21,-4 28,-3 11,2 14,0 27,4 28,9 40,31 40,60 -43,0 -71,-3 -113,7 -27,7 -58,24 -72,48 -24,38 -20,93 16,123 33,27 89,28 129,13 30,-12 34,-23 40,-28l0 30 68 0 0 -182c0,-33 -8,-73 -31,-97 -19,-18 -36,-29 -63,-33 -43,-7 -97,0 -132,22 -8,5 -12,7 -19,12 -2,2 -4,4 -7,4zm451 28c88,0 107,110 64,164 -11,14 -34,28 -59,28 -12,0 -16,0 -28,-3 -29,-7 -48,-28 -57,-56 -2,-5 -4,-12 -4,-18 -2,-21 -2,-38 5,-60 5,-14 11,-22 19,-31l1 -2c0,0 0,0 0,0 7,-7 13,-10 21,-14 9,-5 23,-8 37,-8zm-152 88c0,29 2,53 14,78 5,10 6,13 13,24 3,4 5,7 8,11 9,11 18,19 29,27 7,5 16,10 24,14 40,18 87,17 127,0 9,-4 17,-9 25,-14 12,-8 21,-17 30,-28 37,-46 43,-109 23,-165 -6,-16 -12,-24 -20,-37 -3,-4 -6,-7 -9,-10 -3,-4 -6,-7 -9,-10 -2,-2 -3,-3 -5,-4 -25,-20 -56,-34 -90,-34 -28,0 -50,2 -75,14 -42,21 -70,55 -81,102 -2,10 -4,22 -4,33zm-436 157c0,2 1,2 2,2l65 0 0 -295 -67 0 0 292zm1239 0c0,2 1,2 2,2l65 0 0 -295 -67 0 0 292zm-9 -374c0,10 0,14 4,23 21,42 82,26 82,-19 0,-24 -19,-43 -41,-43 -18,0 -27,5 -37,16 -4,5 -9,15 -9,22zm-1240 2c0,39 44,59 73,33l2 -2c23,-25 10,-72 -32,-72 -24,0 -43,20 -43,41z"/>
  <path fill="#888888" d="M1094 978c0,13 7,21 15,29 4,4 7,8 11,11l138 141c2,2 3,4 6,6l17 17c2,2 3,4 5,6 7,7 20,12 33,8 11,-4 18,-12 25,-20 6,-8 16,-15 22,-23 7,-8 15,-15 22,-22 2,-2 3,-4 5,-6l44 -46c2,-2 4,-4 6,-6 3,-3 8,-9 12,-11l0 247c0,19 -1,34 17,45 21,13 51,-3 51,-29l0 -349c0,-16 -15,-32 -31,-32 -18,0 -21,4 -33,16 -7,7 -14,14 -21,22 -4,4 -7,7 -11,11l-10 11c-4,4 -7,7 -11,11l-26 27c-2,2 -3,4 -5,6 -7,7 -16,15 -22,22 -6,8 -14,14 -21,22 -6,6 -15,17 -22,22l-102 -105c-2,-2 -3,-4 -5,-6 -7,-7 -15,-14 -22,-22l-21 -22c-12,-12 -14,-16 -33,-16 -12,0 -23,10 -28,20 -1,3 -3,9 -3,13zm-432 138c-3,-2 -16,-16 -21,-22l-38 -38c-2,-2 -3,-4 -5,-6 -7,-7 -15,-14 -22,-22l-43 -44c-20,-20 -35,-46 -63,-35 -7,3 -14,9 -17,16 -6,10 -4,27 4,37 17,18 35,35 52,54l20 20c3,3 4,5 6,7 5,5 9,9 13,13 2,2 4,4 6,6l75 78c8,11 17,18 32,18 17,0 28,-16 41,-29l34 -36c12,-12 23,-24 35,-36 3,-3 5,-6 8,-9l17 -17c3,-3 5,-7 9,-9l0 248c0,16 -2,25 6,35 20,27 61,13 61,-19l0 -349c0,-9 -4,-17 -10,-22 -11,-11 -26,-13 -40,-6 -8,5 -34,33 -44,43 -4,4 -7,7 -11,11 -2,2 -4,3 -6,6l-16 17c-4,4 -7,7 -11,11l-27 28c-8,10 -18,18 -27,28 -2,2 -3,4 -5,6 -2,2 -4,3 -6,6 -3,3 -9,8 -11,11zm1119 -109c28,0 45,2 71,14 11,5 23,12 31,21 3,3 6,5 9,8 5,7 11,12 15,19 29,43 32,98 9,144 -8,15 -11,28 2,44 12,14 40,16 53,-5 4,-6 11,-22 14,-29 20,-54 18,-109 -6,-161 -10,-24 -25,-44 -43,-62 -2,-2 -4,-4 -6,-6l-14 -12c-3,-2 -5,-4 -8,-6 -7,-6 -24,-15 -33,-19 -53,-23 -104,-25 -159,-6 -11,4 -20,9 -29,13 -21,11 -24,42 -5,56 19,14 32,6 47,-1 14,-7 36,-13 52,-13zm-202 134c0,31 1,53 13,82 10,25 24,51 43,71 11,11 20,20 34,29 11,7 15,9 24,14 3,2 5,2 9,4 30,14 57,19 95,19 27,0 49,-7 69,-14 5,-2 9,-4 14,-6 2,-1 4,-2 7,-3 11,-7 22,-13 22,-33 0,-18 -16,-32 -31,-32 -20,0 -18,6 -43,14 -34,11 -72,9 -104,-5 -8,-4 -15,-8 -22,-13 -36,-24 -62,-70 -62,-113 0,-20 1,-34 8,-52 2,-6 5,-12 8,-18 3,-6 6,-11 6,-20 0,-16 -12,-29 -25,-32 -17,-4 -32,5 -38,16 -12,21 -25,59 -25,91zm-628 -160l0 349c0,29 46,47 64,12 2,-3 3,-9 3,-13l0 -348c0,-19 -15,-33 -33,-34 -18,0 -34,15 -34,33zm144 148l0 201c0,25 36,47 60,19 4,-4 7,-13 7,-18l0 -202c0,-18 -16,-33 -34,-33 -18,0 -33,15 -33,34zm-646 -2l0 203c0,9 4,15 10,21l1 1c21,21 57,5 57,-24l0 -199c0,-5 -2,-10 -3,-13 -17,-35 -64,-17 -64,12z"/>
  <path fill="#888888" fill-rule="nonzero" d="M1138 1672c0,9 3,16 9,22 6,6 13,9 21,9 9,0 17,-3 23,-9 6,-6 9,-14 9,-23 0,-9 -3,-16 -9,-22 -6,-6 -13,-9 -22,-9 -9,0 -16,3 -22,9 -6,6 -9,14 -9,23zm-1 -46c5,-4 10,-7 15,-8 5,-2 12,-3 19,-3 7,0 14,1 20,4 6,2 12,6 17,11 6,5 10,12 13,19 3,7 5,15 5,23 0,9 -2,17 -5,24 -3,8 -8,14 -15,20 -5,4 -10,7 -16,9 -6,2 -12,3 -19,3 -6,0 -12,-1 -18,-3 -5,-2 -11,-5 -16,-9l0 9 -25 0 0 -142 25 0 0 43zm92 -9l26 0 26 75 29 -75 26 0 -58 142 -26 0 15 -38 -39 -104z"/>
 </g>
</svg>
